# xmcd
# 
# Track frame offsets:
#     150
#     16304
#     32641
#     51829
#     68762
#     85355
#     100837
#     120510
#     137033
#     154430
#     173613
#     193616
#     208739
#     227328
#     248763
#     275997
# 
# Disc length: 4440
# 
# Revision: 0
# Processed by: cddbd v1.5.2PL0 Copyright (c) Steve Scherf et al.
# Submitted via: fre:ac v1.1beta1pre4
# 
DISCID=db115610
DTITLE=Various Artist - Thank Tou
DYEAR=0
DGENRE=
TTITLE0=Jamelia - Superstar
TTITLE1=Jamelia - Stop
TTITLE2=Jamelia - Singuila - Thank You
TTITLE3=Jamelia - DJ
TTITLE4=Jamelia - See It In A Boy's Eyes
TTITLE5=Jamelia - Taxi
TTITLE6=Jamelia - Dirty Dirty
TTITLE7=Jamelia - Club Hoppin'
TTITLE8=Jamelia - Cutie
TTITLE9=Jamelia - Bounce
TTITLE10=Jamelia - Rah Digga - Bout
TTITLE11=Jamelia - Asher D - Off Da Endz
TTITLE12=Jamelia - B.I.T.C.H.
TTITLE13=Jamelia - Life
TTITLE14=Jamelia - Antidote
TTITLE15=Data track
EXTD=
EXTT0=
EXTT1=
EXTT2=
EXTT3=
EXTT4=
EXTT5=
EXTT6=
EXTT7=
EXTT8=
EXTT9=
EXTT10=
EXTT11=
EXTT12=
EXTT13=
EXTT14=
EXTT15=
PLAYORDER=
